<svg id="Слой_1" data-name="Слой 1" xmlns="http://www.w3.org/2000/svg" viewBox="0 0 349.92 349.92">
  <defs>
    <style>
      .cls-1 {
        fill: #56b040;
      }

      .cls-1, .cls-2 {
        fill-rule: evenodd;
      }

      .cls-2 {
        fill: #fff;
      }
    </style>
  </defs>
  <title>ЦВЕТ</title>
  <path class="cls-1" d="M2323.9,999c96.36,0,175-78.6,175-175s-78.6-175-175-175-175,78.59-175,175S2227.54,999,2323.9,999Z" transform="translate(-2148.94 -649.05)"/>
  <path class="cls-2" d="M2202.59,950.05q-2.28-2.19-4.48-4.47l16.15-57.37a127.29,127.29,0,1,1,47.56,46.59l-59.23,15.25h0Zm62.57-38.41,3.89,2.38a105.71,105.71,0,1,0-34-33.27l2.62,4.09-10.28,36.53Z" transform="translate(-2148.94 -649.05)"/>
  <path class="cls-2" d="M2287.86,764.13l-8.26-.45a10,10,0,0,0-7.1,2.43c-4,3.48-10.41,10.2-12.38,19-2.93,13.07,1.6,29.07,13.33,45.07s33.6,41.6,72.27,52.53c12.46,3.52,22.26,1.15,29.82-3.69A26.67,26.67,0,0,0,2387.14,862l1.32-6.16a4.28,4.28,0,0,0-2.39-4.79l-27.92-12.87a4.28,4.28,0,0,0-5.18,1.27l-11,14.21a3.14,3.14,0,0,1-3.53,1.05c-7.5-2.64-32.65-13.17-46.45-39.75a3.16,3.16,0,0,1,.4-3.53l10.48-12.12a4.27,4.27,0,0,0,.7-4.48l-12-28.16A4.28,4.28,0,0,0,2287.86,764.13Z" transform="translate(-2148.94 -649.05)"/>
</svg>
