<svg id="Слой_1" data-name="Слой 1" xmlns="http://www.w3.org/2000/svg" viewBox="0 0 299.78 43.85">
  <defs>
    <style>
      .cls-1 {
        fill: #ffdf30;
      }

      .cls-2, .cls-3 {
        fill: #1d1d1b;
      }

      .cls-2 {
        fill-rule: evenodd;
      }
    </style>
  </defs>
  <title>LOGO_clean_gorizont</title>
  <rect class="cls-1" width="43.85" height="43.85" rx="2.4" ry="2.4"/>
  <path class="cls-2" d="M322.75,291.93l6.45-1.61-2,7.81a42.1,42.1,0,0,1,4.78-1.54c1.88-.46,5-0.81,6.51.72,1,1,1.6,2.31.85,5.16l-5.82,22.35h-6l1.63-6.27c-2.47.92-4.84,1.91-7.53,2-3,.07-4.84-1-5-3.67a13.51,13.51,0,0,1,.6-3.77l5.51-21.15h0Zm3.92,8.09-0.28,1.15-3.13,12a7.63,7.63,0,0,0-.33,2.14c0.16,3,4.87,2.15,6.7,1.46l3.42-13.14h0c0.62-2.6.21-4.14-2.43-4.2A12.44,12.44,0,0,0,326.68,300Z" transform="translate(-306.21 -285.65)"/>
  <polygon class="cls-3" points="171.6 10.15 166.2 10.15 166.2 5.08 182.05 5.08 182.05 10.15 176.68 10.15 176.68 38.74 171.6 38.74 171.6 10.15"/>
  <polygon class="cls-3" points="147.86 38.77 147.86 5.08 162.31 5.08 162.31 10.15 152.93 10.15 152.93 19.37 159.79 19.37 159.79 24.48 152.93 24.48 152.93 33.7 162.31 33.7 162.31 38.77 147.86 38.77"/>
  <polygon class="cls-3" points="130.4 5.08 137.13 27.7 137.13 5.08 142.21 5.08 142.21 38.77 136.76 38.77 129.77 17.2 129.77 38.77 124.69 38.77 124.69 5.08 130.4 5.08"/>
  <polygon class="cls-3" points="109.59 10.19 104.19 10.19 104.19 5.11 120.04 5.11 120.04 10.19 114.67 10.19 114.67 38.77 109.59 38.77 109.59 10.19"/>
  <path class="cls-3" d="M398.69,290.75q4.25,0,6.24,2.34a8.48,8.48,0,0,1,1.75,5.69v4.89a7.86,7.86,0,0,1-2.72,6l3.76,14.7h-5.49l-3.07-12.68h-3.4v12.68h-5.08V290.75h8Zm3,8.11q0-2.93-2.91-2.93h-3.06v10.78h3.06a2.79,2.79,0,0,0,2.06-.86,2.86,2.86,0,0,0,.84-2.07v-4.91Z" transform="translate(-306.21 -285.65)"/>
  <path class="cls-3" d="M374.26,316.68L373,324.42h-5.3l5.72-33.66h7l5.64,33.66h-5.33l-1.19-7.74h-5.3Zm2.66-18.21L375,311.74h3.76Z" transform="translate(-306.21 -285.65)"/>
  <path class="cls-3" d="M597.93,290.32a8.05,8.05,0,0,1,8.06,8.06v18.38a8,8,0,1,1-16.1,0V298.38a8.05,8.05,0,0,1,8-8.06h0Zm2.77,8a2.88,2.88,0,0,0-2.91-2.9,2.85,2.85,0,0,0-2.07.84,2.78,2.78,0,0,0-.86,2.06v18.43a2.78,2.78,0,0,0,.86,2.06,2.95,2.95,0,0,0,4.13,0,2.81,2.81,0,0,0,.85-2.06V298.27Z" transform="translate(-306.21 -285.65)"/>
  <rect class="cls-3" x="273.66" y="5.11" width="5.08" height="33.66"/>
  <path class="cls-3" d="M575.12,316.36a7.81,7.81,0,0,1-2.34,5.69,7.64,7.64,0,0,1-5.64,2.36h-8V290.72h8a7.61,7.61,0,0,1,5.65,2.36,7.8,7.8,0,0,1,2.33,5.67v17.6h0Zm-10.88,3h3.06a2.7,2.7,0,0,0,2-.88,2.88,2.88,0,0,0,.83-2.06V298.84a2.87,2.87,0,0,0-.84-2.07,2.75,2.75,0,0,0-2-.86h-3.06v23.48Z" transform="translate(-306.21 -285.65)"/>
  <path class="cls-3" d="M546,324.79a8,8,0,0,1-8-8v-26h5v26a2.78,2.78,0,0,0,.86,2.06,2.95,2.95,0,0,0,4.13,0,2.81,2.81,0,0,0,.84-2.06v-26h5.29v26a7.66,7.66,0,0,1-2.36,5.7A7.86,7.86,0,0,1,546,324.79Z" transform="translate(-306.21 -285.65)"/>
  <polygon class="cls-3" points="218.26 10.19 212.86 10.19 212.86 5.11 228.71 5.11 228.71 10.19 223.34 10.19 223.34 38.77 218.26 38.77 218.26 10.19"/>
  <path class="cls-3" d="M517.47,316a9.45,9.45,0,0,1-1.83,6,6.56,6.56,0,0,1-3.49,2.39,9.45,9.45,0,0,1-2.82.38,8,8,0,0,1-4.94-1.47,8.31,8.31,0,0,1-2.59-3.29,13.3,13.3,0,0,1-1.12-4.77l4.84-.35a7.27,7.27,0,0,0,1.56,4.24,2.6,2.6,0,0,0,2.09.94,3.15,3.15,0,0,0,2.66-1.64,4.06,4.06,0,0,0,.51-2.23,6.19,6.19,0,0,0-1.91-4.16l-4.51-4.27a19.32,19.32,0,0,1-3.57-4.38,10.17,10.17,0,0,1-1.13-4.73,8.22,8.22,0,0,1,3.09-7,7.67,7.67,0,0,1,4.73-1.43,8.57,8.57,0,0,1,4.65,1.21,6.93,6.93,0,0,1,2.43,2.64,9.76,9.76,0,0,1,1.12,3.9l-4.86.88a5.91,5.91,0,0,0-1.19-3.23,2.48,2.48,0,0,0-2-.83,2.31,2.31,0,0,0-2.12,1.24,4.73,4.73,0,0,0-.59,2.47,7.42,7.42,0,0,0,2,4.7,16.94,16.94,0,0,0,2.26,2.15c1.19,1,2,1.68,2.34,2.07a17.24,17.24,0,0,1,2.9,3.71,15.1,15.1,0,0,1,.78,1.59A9.36,9.36,0,0,1,517.47,316Z" transform="translate(-306.21 -285.65)"/>
</svg>