<svg id="Слой_1" data-name="Слой 1" xmlns="http://www.w3.org/2000/svg" viewBox="0 0 349.92 349.92">
  <defs>
    <style>
      .cls-1 {
        fill: #6d4494;
      }

      .cls-1, .cls-2 {
        fill-rule: evenodd;
      }

      .cls-2 {
        fill: #fff;
      }
    </style>
  </defs>
  <title>ЦВЕТ2</title>
  <path class="cls-1" d="M2804.49,999c96.36,0,175-78.6,175-175s-78.6-175-175-175-175,78.59-175,175S2708.12,999,2804.49,999Z" transform="translate(-2629.53 -649.05)"/>
  <g>
    <path class="cls-2" d="M2851.36,928.59c-3.73-1.13-7.29-1.89-10.59-3.26-34.22-14.19-65.7-32.5-90.64-60.58-14.18-16-25.28-34-34.67-53.06-4.45-9-8.2-18.44-12-27.78-3.48-8.52,1.65-17.31,7.06-23.73a55.82,55.82,0,0,1,18.67-14c5.52-2.65,11-1.12,15,3.56a193.09,193.09,0,0,1,23.19,32.46c4,7.21,2.9,16-4.33,20.93-1.75,1.19-3.36,2.59-5,3.94a16.51,16.51,0,0,0-3.76,4,10.86,10.86,0,0,0-.72,9.55c8.9,24.47,23.91,43.5,48.54,53.75,3.94,1.64,7.9,3.55,12.44,3,7.61-.89,10.06-9.23,15.4-13.59s11.86-4.31,17.47-.76,11.05,7.36,16.46,11.21A187.28,187.28,0,0,1,2879.33,886c4.71,4.15,6.33,9.59,3.68,15.21-4.85,10.3-11.91,18.87-22.1,24.35-2.88,1.54-6.31,2-9.56,3C2847.62,927.46,2854.6,927.59,2851.36,928.59Z" transform="translate(-2629.53 -649.05)"/>
    <path class="cls-2" d="M2798.67,734.38c44.75,1.26,81.5,31,89.38,75.19,1.34,7.54,1.82,15.25,2.42,22.89,0.25,3.22-1.57,6.28-5,6.32s-5.2-3-5.43-6.18c-0.46-6.37-.78-12.76-1.66-19.08-4.63-33.34-31.21-60.92-64.39-66.83-5-.89-10.11-1.12-15.16-1.66-3.19-.34-7.38-0.53-8.09-4.5-0.6-3.33,2.21-6,5.39-6.16,0.86,0,1.73,0,2.6,0C2843.42,735.64,2797.8,734.38,2798.67,734.38Z" transform="translate(-2629.53 -649.05)"/>
    <path class="cls-2" d="M2866.67,822.54a20.82,20.82,0,0,1-.44,3.11c-1.19,4.49-8,5.05-9.57.52a13.56,13.56,0,0,1-.54-4.33,54.19,54.19,0,0,0-6.85-27.19A50.62,50.62,0,0,0,2828,774.74a61.12,61.12,0,0,0-16.92-5.19c-2.55-.42-5.13-0.68-7.69-1-3.11-.43-4.76-2.4-4.62-5.47a4.81,4.81,0,0,1,5.36-4.75c10.27,0.58,20.19,2.8,29.32,7.64,18.57,9.83,29.17,25.35,32.27,46.08,0.14,0.94.36,1.87,0.44,2.81,0.17,2.33.28,4.66,0.46,7.73C2866.6,823.1,2866.49,819.47,2866.67,822.54Z" transform="translate(-2629.53 -649.05)"/>
    <path class="cls-2" d="M2838.84,821.46c-3.75.07-5.75-2-6.13-5.44a55.86,55.86,0,0,0-1.05-7.15,20.12,20.12,0,0,0-7.42-11.65,19.4,19.4,0,0,0-6-2.91c-2.75-.8-5.6-0.57-8.34-1.25a5.11,5.11,0,0,1-4.15-5.93,5.38,5.38,0,0,1,5.67-4.32c17.35,1.25,29.75,10.22,31.52,30.65a14.1,14.1,0,0,1,0,4.34,4.45,4.45,0,0,1-4,3.66C2835.09,821.52,2840.54,821.34,2838.84,821.46Z" transform="translate(-2629.53 -649.05)"/>
  </g>
</svg>
